<svg width="19" height="19" viewBox="0 0 19 19" fill="none" xmlns="http://www.w3.org/2000/svg">
<path d="M18.6203 13.3103C18.6203 13.3103 18.6656 4.75748 18.6838 1.42506C18.6854 1.14775 18.5738 0.895441 18.3925 0.712058C18.2112 0.528674 17.9611 0.415174 17.6829 0.412629C14.3524 0.392574 5.79963 0.34161 5.79963 0.34161C5.52518 0.339086 5.27572 0.44972 5.09425 0.629123C4.90991 0.811359 4.7964 1.06333 4.79479 1.34253C4.79066 1.89809 5.23631 2.35271 5.78808 2.35492L15.243 2.40916L1.21038 16.2817C0.814954 16.6727 0.811293 17.3108 1.2022 17.7063C1.59311 18.1017 2.2313 18.1053 2.62672 17.7144L16.6594 3.84185L16.6051 13.2987C16.602 13.8476 17.0515 14.2966 17.6061 14.2997C17.8872 14.3014 18.1414 14.1898 18.3248 14.0085C18.5063 13.8291 18.6178 13.5828 18.6203 13.3103Z" fill="#E01B1B"/>
</svg>
