<svg width="30" height="18" viewBox="0 0 30 18" fill="none" xmlns="http://www.w3.org/2000/svg">
<path d="M24.0218 11.25V2.25C24.0218 1.0125 22.8457 0 21.4083 0H3.11353C1.67609 0 0.5 1.0125 0.5 2.25V11.25C0.5 12.4875 1.67609 13.5 3.11353 13.5H21.4083C22.8457 13.5 24.0218 12.4875 24.0218 11.25ZM12.2609 10.125C10.0917 10.125 8.3406 8.6175 8.3406 6.75C8.3406 4.8825 10.0917 3.375 12.2609 3.375C14.4301 3.375 16.1812 4.8825 16.1812 6.75C16.1812 8.6175 14.4301 10.125 12.2609 10.125ZM29.2489 3.375V15.75C29.2489 16.9875 28.0728 18 26.6353 18H4.4203V15.75H26.6353V3.375H29.2489Z" fill="black"/>
</svg>
