<svg width="41" height="37" viewBox="0 0 41 37" fill="none" xmlns="http://www.w3.org/2000/svg">
<path d="M16.9995 26.36L19.2217 27.36V20.77C19.2205 20.5077 19.1047 20.2563 18.8995 20.07L11.6995 13.5H28.9883L21.7995 20.07C21.5942 20.2563 21.4785 20.5077 21.4772 20.77L21.4439 28.5L23.6661 29.5V21.18L30.9772 14.5C31.2697 14.233 31.4368 13.8749 31.4439 13.5V12.5C31.4439 12.2348 31.3268 11.9804 31.1185 11.7929C30.9101 11.6054 30.6275 11.5 30.3328 11.5H10.3328C10.0381 11.5 9.75549 11.6054 9.54712 11.7929C9.33874 11.9804 9.22168 12.2348 9.22168 12.5V13.5C9.22879 13.8749 9.39589 14.233 9.68835 14.5L16.9995 21.18V26.36Z" fill="black"/>
</svg>
