<svg width="6" height="18" viewBox="0 0 6 18" fill="none" xmlns="http://www.w3.org/2000/svg">
<path d="M0 14.919C0 16.2535 1.19248 17.3398 2.65743 17.3398C4.12237 17.3398 5.31486 16.2535 5.31486 14.919C5.31486 13.5845 4.12237 12.4983 2.65743 12.4983C1.19248 12.4983 0 13.5845 0 14.919ZM2.65743 13.4196C3.56439 13.4196 4.30339 14.0928 4.30339 14.919C4.30339 15.7452 3.56439 16.4184 2.65743 16.4184C1.75047 16.4184 1.01146 15.7452 1.01146 14.919C1.01146 14.0911 1.75047 13.4196 2.65743 13.4196Z" fill="var(--clr-primary)"/>
<path d="M0 9.05967C0 10.3942 1.19248 11.4805 2.65743 11.4805C4.12237 11.4805 5.31486 10.3942 5.31486 9.05967C5.31486 7.72517 4.12237 6.63888 2.65743 6.63888C1.19248 6.63888 0 7.72517 0 9.05967ZM2.65743 7.56027C3.56439 7.56027 4.30339 8.23347 4.30339 9.05967C4.30339 9.88587 3.56439 10.5591 2.65743 10.5591C1.75047 10.5591 1.01146 9.88587 1.01146 9.05967C1.01146 8.23347 1.75047 7.56027 2.65743 7.56027Z" fill="var(--clr-primary)"/>
<path d="M0 3.10069C0 4.43519 1.19248 5.52148 2.65743 5.52148C4.12237 5.52148 5.31486 4.43519 5.31486 3.10069C5.31486 1.76619 4.12237 0.679892 2.65743 0.679892C1.19248 0.679892 0 1.76619 0 3.10069ZM2.65743 1.60129C3.56439 1.60129 4.30339 2.27449 4.30339 3.10069C4.30339 3.92689 3.56439 4.60009 2.65743 4.60009C1.75047 4.60009 1.01146 3.92689 1.01146 3.10069C1.01146 2.27449 1.75047 1.60129 2.65743 1.60129Z" fill="var(--clr-primary)"/>
</svg>
