<svg width="70" height="70" viewBox="0 0 70 70" fill="none" xmlns="http://www.w3.org/2000/svg">
<path fill-rule="evenodd" clip-rule="evenodd" d="M64.1667 70H5.83333C2.61333 70 0 66.864 0 63V21.0001C0 17.1361 2.61333 14.0001 5.83333 14.0001H10.5758L10.8033 14.9906C11.3692 17.1991 12.3142 19.2641 13.5742 21.0001H7.29167C6.48667 21.0001 5.83333 21.7841 5.83333 22.7501V42H64.1667V22.7501C64.1667 21.7841 63.5133 21.0001 62.7083 21.0001H56.4258C57.8754 19.0086 58.9137 16.5761 59.4271 14.0001H64.1667C67.3867 14.0001 70 17.1361 70 21.0001V63C70 66.864 67.3867 70 64.1667 70ZM5.83333 52.5V61.25C5.83333 62.216 6.48667 63 7.29167 63H62.7083C63.5133 63 64.1667 62.216 64.1667 61.25V52.5H5.83333ZM31.8237 35H23.3333C25.0367 30.2505 27.1104 25.0881 29.1667 21.0001C27.2796 20.9966 24.5817 21.0246 23.3333 21.0001C17.2054 20.8776 14.6212 14.6791 14.5833 10.5001C14.5367 5.13108 18.0979 -0.024413 23.3333 8.69745e-05C27.7054 0.0210869 31.5408 3.05208 35 8.09558C38.4592 3.05208 42.2946 0.0210869 46.6667 8.69745e-05C51.905 -0.024413 55.4633 5.13108 55.4167 10.5001C55.3787 14.6791 52.7946 20.8776 46.6667 21.0001C45.4183 21.0246 42.7204 20.9966 40.8333 21.0001C42.9887 25.1931 45.1821 30.702 46.6667 35H38.1762C37.4733 30.667 36.1346 25.7181 35 23.1561C33.8683 25.7181 32.3692 31.5315 31.8237 35ZM24.3775 7.00708C21.0787 7.00708 19.9821 13.7201 24.7275 14.0001C25.4187 14.0421 31.2462 14.0001 31.2462 14.0001C28.2217 8.96008 26.8129 7.00708 24.3775 7.00708ZM45.5846 7.00708C48.8833 7.00708 49.98 13.7201 45.2346 14.0001C44.5433 14.0421 38.7537 14.0001 38.7537 14.0001C41.7783 8.96008 43.1492 7.00708 45.5846 7.00708Z" fill="var(--clr-primary)"/>
</svg>
