<svg width="31" height="20" viewBox="0 0 31 20" fill="none" xmlns="http://www.w3.org/2000/svg">
<path d="M2.35762 8.35937C1.95535 8.35974 1.56389 8.2422 1.24243 8.02455C0.920979 7.80689 0.687016 7.50094 0.575924 7.15298C0.464832 6.80502 0.482654 6.43396 0.626694 6.09592C0.770735 5.75789 1.03316 5.47126 1.37428 5.27937L6.35206 0.799372C6.52412 0.644632 6.72835 0.521907 6.95311 0.438204C7.17787 0.354501 7.41874 0.311459 7.66198 0.311537C7.90521 0.311614 8.14605 0.354809 8.37074 0.438655C8.59543 0.522501 8.79957 0.645355 8.97151 0.800205C9.14344 0.955056 9.2798 1.13887 9.37281 1.34115C9.46581 1.54343 9.51363 1.76021 9.51355 1.97913C9.51346 2.19804 9.46547 2.4148 9.37231 2.61702C9.27914 2.81924 9.14264 3.00297 8.97058 3.15771L6.89466 5.02437L20.8761 5.02437C21.3673 5.02437 21.8383 5.19997 22.1856 5.51253C22.5329 5.82509 22.728 6.24901 22.728 6.69104C22.728 7.13307 22.5329 7.55699 22.1856 7.86955C21.8383 8.18211 21.3673 8.35771 20.8761 8.35771L2.35762 8.35771L2.35762 8.35937Z" fill="#C4C4C4"/>
<path d="M28.3098 11.6397C28.7121 11.6393 29.1036 11.7568 29.425 11.9745C29.7465 12.1921 29.9804 12.4981 30.0915 12.8461C30.2026 13.194 30.1848 13.5651 30.0408 13.9031C29.8967 14.2411 29.6343 14.5278 29.2932 14.7197L24.3154 19.1997C23.9679 19.5122 23.4967 19.6877 23.0055 19.6875C22.5142 19.6873 22.0432 19.5116 21.6959 19.1988C21.3487 18.8861 21.1537 18.462 21.1539 18.0199C21.1541 17.5778 21.3494 17.1538 21.6969 16.8413L23.7728 14.9747L9.79131 14.9747C9.30016 14.9747 8.82914 14.7991 8.48185 14.4865C8.13456 14.1739 7.93945 13.75 7.93945 13.308C7.93945 12.866 8.13456 12.442 8.48185 12.1295C8.82914 11.8169 9.30016 11.6413 9.7913 11.6413L28.3098 11.6413L28.3098 11.6397Z" fill="#C4C4C4"/>
</svg>
