<svg width="24" height="27" viewBox="0 0 24 27" fill="none" xmlns="http://www.w3.org/2000/svg">
<g clip-path="url(#clip0_1383_41446)">
<path d="M19.4328 14.4222C19.4728 14.0666 19.5028 13.7111 19.5028 13.3333C19.5028 12.9555 19.4728 12.5999 19.4328 12.2444L21.5428 10.4111C21.7328 10.2444 21.7828 9.94439 21.6628 9.69995L19.6628 5.8555C19.5728 5.67772 19.4028 5.57772 19.2228 5.57772C19.1628 5.57772 19.1028 5.58884 19.0528 5.61106L16.5628 6.72217C16.0428 6.27772 15.4828 5.91106 14.8728 5.63328L14.4928 2.68883C14.4628 2.42217 14.2528 2.22217 14.0028 2.22217H10.0028C9.75277 2.22217 9.54277 2.42217 9.51277 2.68883L9.13277 5.63328C8.52277 5.91106 7.96277 6.28884 7.44277 6.72217L4.95277 5.61106C4.89277 5.58884 4.83277 5.57772 4.77277 5.57772C4.60277 5.57772 4.43277 5.67772 4.34277 5.8555L2.34277 9.69995C2.21277 9.94439 2.27277 10.2444 2.46277 10.4111L4.57277 12.2444C4.53277 12.5999 4.50277 12.9666 4.50277 13.3333C4.50277 13.6999 4.53277 14.0666 4.57277 14.4222L2.46277 16.2555C2.27277 16.4222 2.22277 16.7222 2.34277 16.9666L4.34277 20.8111C4.43277 20.9888 4.60277 21.0888 4.78277 21.0888C4.84277 21.0888 4.90277 21.0777 4.95277 21.0555L7.44277 19.9444C7.96277 20.3888 8.52277 20.7555 9.13277 21.0333L9.51277 23.9777C9.54277 24.2444 9.75277 24.4444 10.0028 24.4444H14.0028C14.2528 24.4444 14.4628 24.2444 14.4928 23.9777L14.8728 21.0333C15.4828 20.7555 16.0428 20.3777 16.5628 19.9444L19.0528 21.0555C19.1128 21.0777 19.1728 21.0888 19.2328 21.0888C19.4028 21.0888 19.5728 20.9888 19.6628 20.8111L21.6628 16.9666C21.7828 16.7222 21.7328 16.4222 21.5428 16.2555L19.4328 14.4222ZM17.4528 12.5222C17.4928 12.8666 17.5028 13.0999 17.5028 13.3333C17.5028 13.5666 17.4828 13.8111 17.4528 14.1444L17.3128 15.3999L18.2028 16.1777L19.2828 17.1111L18.5828 18.4555L17.3128 17.8888L16.2728 17.4222L15.3728 18.1777C14.9428 18.5333 14.5328 18.7999 14.1228 18.9888L13.0628 19.4666L12.9028 20.7222L12.7028 22.2222H11.3028L11.1128 20.7222L10.9528 19.4666L9.89277 18.9888C9.46277 18.7888 9.06277 18.5333 8.66277 18.1999L7.75277 17.4222L6.69277 17.8999L5.42277 18.4666L4.72277 17.1222L5.80277 16.1888L6.69277 15.4111L6.55277 14.1555C6.52277 13.8111 6.50277 13.5555 6.50277 13.3333C6.50277 13.1111 6.52277 12.8555 6.55277 12.5222L6.69277 11.2666L5.80277 10.4888L4.72277 9.5555L5.42277 8.21106L6.69277 8.77772L7.73277 9.24439L8.63277 8.48883C9.06277 8.13328 9.47277 7.86661 9.88277 7.67772L10.9428 7.19995L11.1028 5.94439L11.3028 4.44439H12.6928L12.8828 5.94439L13.0428 7.19995L14.1028 7.67772C14.5328 7.87772 14.9328 8.13328 15.3328 8.46661L16.2428 9.24439L17.3028 8.76661L18.5728 8.19995L19.2728 9.54439L18.2028 10.4888L17.3128 11.2666L17.4528 12.5222ZM12.0028 8.88883C9.79277 8.88883 8.00277 10.8777 8.00277 13.3333C8.00277 15.7888 9.79277 17.7777 12.0028 17.7777C14.2128 17.7777 16.0028 15.7888 16.0028 13.3333C16.0028 10.8777 14.2128 8.88883 12.0028 8.88883ZM12.0028 15.5555C10.9028 15.5555 10.0028 14.5555 10.0028 13.3333C10.0028 12.1111 10.9028 11.1111 12.0028 11.1111C13.1028 11.1111 14.0028 12.1111 14.0028 13.3333C14.0028 14.5555 13.1028 15.5555 12.0028 15.5555Z" fill="#A3AED0"/>
</g>
<defs>
<clipPath id="clip0_1383_41446">
<rect width="24" height="26.6667" fill="white"/>
</clipPath>
</defs>
</svg>
