<svg width="30" height="20" viewBox="0 0 30 20" fill="none" xmlns="http://www.w3.org/2000/svg">
<path fill-rule="evenodd" clip-rule="evenodd" d="M0.5 3.4375C0.5 2.69158 0.783958 1.97621 1.28941 1.44876C1.79486 0.921316 2.48039 0.625 3.19521 0.625H26.5537C27.2685 0.625 27.954 0.921316 28.4595 1.44876C28.9649 1.97621 29.2489 2.69158 29.2489 3.4375V6.25C29.2489 6.49864 29.1542 6.7371 28.9857 6.91291C28.8173 7.08873 28.5887 7.1875 28.3505 7.1875C27.6357 7.1875 26.9501 7.48382 26.4447 8.01126C25.9392 8.53871 25.6553 9.25408 25.6553 10C25.6553 10.7459 25.9392 11.4613 26.4447 11.9887C26.9501 12.5162 27.6357 12.8125 28.3505 12.8125C28.5887 12.8125 28.8173 12.9113 28.9857 13.0871C29.1542 13.2629 29.2489 13.5014 29.2489 13.75V16.5625C29.2489 17.3084 28.9649 18.0238 28.4595 18.5512C27.954 19.0787 27.2685 19.375 26.5537 19.375H3.19521C2.48039 19.375 1.79486 19.0787 1.28941 18.5512C0.783958 18.0238 0.5 17.3084 0.5 16.5625L0.5 13.75C0.5 13.5014 0.594653 13.2629 0.763136 13.0871C0.931619 12.9113 1.16013 12.8125 1.3984 12.8125C2.11322 12.8125 2.79875 12.5162 3.3042 11.9887C3.80965 11.4613 4.09361 10.7459 4.09361 10C4.09361 9.25408 3.80965 8.53871 3.3042 8.01126C2.79875 7.48382 2.11322 7.1875 1.3984 7.1875C1.16013 7.1875 0.931619 7.08873 0.763136 6.91291C0.594653 6.7371 0.5 6.49864 0.5 6.25V3.4375ZM7.68722 1.5625V3.4375H9.48402V1.5625H7.68722ZM9.48402 7.1875H7.68722V5.3125H9.48402V7.1875ZM22.0617 7.1875H20.2649V5.3125H22.0617V7.1875ZM20.2649 3.4375V1.5625H22.0617V3.4375H20.2649ZM9.48402 9.0625H7.68722V10.9375H9.48402V9.0625ZM22.0617 10.9375H20.2649V9.0625H22.0617V10.9375ZM9.48402 12.8125H7.68722V14.6875H9.48402V12.8125ZM22.0617 14.6875H20.2649V12.8125H22.0617V14.6875ZM7.68722 16.5625V18.4375H9.48402V16.5625H7.68722ZM20.2649 18.4375V16.5625H22.0617V18.4375H20.2649Z" fill="black"/>
</svg>
