<svg width="374" height="375" viewBox="0 0 374 375" fill="none" xmlns="http://www.w3.org/2000/svg">
<circle cx="187" cy="187.5" r="187" fill="#58F222"/>
<rect width="9.16338" height="61.6648" transform="matrix(0.545019 0.838424 -0.757888 0.652384 217.004 136.5)" fill="white"/>
<rect width="7.08424" height="33.919" transform="matrix(0.63896 -0.76924 0.672699 0.739916 153 159.082)" fill="white"/>
<path d="M140.281 208.547C140.281 208.141 140.219 207.776 140.094 207.453C139.979 207.12 139.76 206.818 139.438 206.547C139.115 206.266 138.661 205.99 138.078 205.719C137.495 205.448 136.74 205.167 135.812 204.875C134.781 204.542 133.802 204.167 132.875 203.75C131.958 203.333 131.146 202.849 130.438 202.297C129.74 201.734 129.188 201.083 128.781 200.344C128.385 199.604 128.188 198.745 128.188 197.766C128.188 196.818 128.396 195.958 128.812 195.188C129.229 194.406 129.812 193.74 130.562 193.188C131.312 192.625 132.198 192.193 133.219 191.891C134.25 191.589 135.38 191.438 136.609 191.438C138.286 191.438 139.75 191.74 141 192.344C142.25 192.948 143.219 193.776 143.906 194.828C144.604 195.88 144.953 197.083 144.953 198.438H140.297C140.297 197.771 140.156 197.188 139.875 196.688C139.604 196.177 139.188 195.776 138.625 195.484C138.073 195.193 137.375 195.047 136.531 195.047C135.719 195.047 135.042 195.172 134.5 195.422C133.958 195.661 133.552 195.99 133.281 196.406C133.01 196.812 132.875 197.271 132.875 197.781C132.875 198.167 132.969 198.516 133.156 198.828C133.354 199.141 133.646 199.432 134.031 199.703C134.417 199.974 134.891 200.229 135.453 200.469C136.016 200.708 136.667 200.943 137.406 201.172C138.646 201.547 139.734 201.969 140.672 202.438C141.62 202.906 142.411 203.432 143.047 204.016C143.682 204.599 144.161 205.26 144.484 206C144.807 206.74 144.969 207.578 144.969 208.516C144.969 209.505 144.776 210.391 144.391 211.172C144.005 211.953 143.448 212.615 142.719 213.156C141.99 213.698 141.12 214.109 140.109 214.391C139.099 214.672 137.969 214.812 136.719 214.812C135.594 214.812 134.484 214.667 133.391 214.375C132.297 214.073 131.302 213.62 130.406 213.016C129.521 212.411 128.812 211.641 128.281 210.703C127.75 209.766 127.484 208.656 127.484 207.375H132.188C132.188 208.083 132.297 208.682 132.516 209.172C132.734 209.661 133.042 210.057 133.438 210.359C133.844 210.661 134.323 210.88 134.875 211.016C135.438 211.151 136.052 211.219 136.719 211.219C137.531 211.219 138.198 211.104 138.719 210.875C139.25 210.646 139.641 210.328 139.891 209.922C140.151 209.516 140.281 209.057 140.281 208.547ZM157.875 210.453V197.594H162.375V214.5H158.141L157.875 210.453ZM158.375 206.984L159.703 206.953C159.703 208.078 159.573 209.125 159.312 210.094C159.052 211.052 158.661 211.885 158.141 212.594C157.62 213.292 156.964 213.839 156.172 214.234C155.38 214.62 154.448 214.812 153.375 214.812C152.552 214.812 151.792 214.698 151.094 214.469C150.406 214.229 149.812 213.859 149.312 213.359C148.823 212.849 148.438 212.198 148.156 211.406C147.885 210.604 147.75 209.641 147.75 208.516V197.594H152.25V208.547C152.25 209.047 152.307 209.469 152.422 209.812C152.547 210.156 152.719 210.438 152.938 210.656C153.156 210.875 153.411 211.031 153.703 211.125C154.005 211.219 154.339 211.266 154.703 211.266C155.63 211.266 156.359 211.078 156.891 210.703C157.432 210.328 157.812 209.818 158.031 209.172C158.26 208.516 158.375 207.786 158.375 206.984ZM172.797 211.297C173.349 211.297 173.839 211.193 174.266 210.984C174.693 210.766 175.026 210.464 175.266 210.078C175.516 209.682 175.646 209.219 175.656 208.688H179.891C179.88 209.875 179.562 210.932 178.938 211.859C178.312 212.776 177.474 213.5 176.422 214.031C175.37 214.552 174.193 214.812 172.891 214.812C171.578 214.812 170.432 214.594 169.453 214.156C168.484 213.719 167.677 213.115 167.031 212.344C166.385 211.562 165.901 210.656 165.578 209.625C165.255 208.583 165.094 207.469 165.094 206.281V205.828C165.094 204.63 165.255 203.516 165.578 202.484C165.901 201.443 166.385 200.536 167.031 199.766C167.677 198.984 168.484 198.375 169.453 197.938C170.422 197.5 171.557 197.281 172.859 197.281C174.245 197.281 175.458 197.547 176.5 198.078C177.552 198.609 178.375 199.37 178.969 200.359C179.573 201.339 179.88 202.5 179.891 203.844H175.656C175.646 203.281 175.526 202.771 175.297 202.312C175.078 201.854 174.755 201.49 174.328 201.219C173.911 200.938 173.396 200.797 172.781 200.797C172.125 200.797 171.589 200.938 171.172 201.219C170.755 201.49 170.432 201.865 170.203 202.344C169.974 202.812 169.812 203.349 169.719 203.953C169.635 204.547 169.594 205.172 169.594 205.828V206.281C169.594 206.938 169.635 207.568 169.719 208.172C169.802 208.776 169.958 209.312 170.188 209.781C170.427 210.25 170.755 210.62 171.172 210.891C171.589 211.161 172.13 211.297 172.797 211.297ZM189.484 211.297C190.036 211.297 190.526 211.193 190.953 210.984C191.38 210.766 191.714 210.464 191.953 210.078C192.203 209.682 192.333 209.219 192.344 208.688H196.578C196.568 209.875 196.25 210.932 195.625 211.859C195 212.776 194.161 213.5 193.109 214.031C192.057 214.552 190.88 214.812 189.578 214.812C188.266 214.812 187.12 214.594 186.141 214.156C185.172 213.719 184.365 213.115 183.719 212.344C183.073 211.562 182.589 210.656 182.266 209.625C181.943 208.583 181.781 207.469 181.781 206.281V205.828C181.781 204.63 181.943 203.516 182.266 202.484C182.589 201.443 183.073 200.536 183.719 199.766C184.365 198.984 185.172 198.375 186.141 197.938C187.109 197.5 188.245 197.281 189.547 197.281C190.932 197.281 192.146 197.547 193.188 198.078C194.24 198.609 195.062 199.37 195.656 200.359C196.26 201.339 196.568 202.5 196.578 203.844H192.344C192.333 203.281 192.214 202.771 191.984 202.312C191.766 201.854 191.443 201.49 191.016 201.219C190.599 200.938 190.083 200.797 189.469 200.797C188.812 200.797 188.276 200.938 187.859 201.219C187.443 201.49 187.12 201.865 186.891 202.344C186.661 202.812 186.5 203.349 186.406 203.953C186.323 204.547 186.281 205.172 186.281 205.828V206.281C186.281 206.938 186.323 207.568 186.406 208.172C186.49 208.776 186.646 209.312 186.875 209.781C187.115 210.25 187.443 210.62 187.859 210.891C188.276 211.161 188.818 211.297 189.484 211.297ZM206.969 214.812C205.656 214.812 204.479 214.604 203.438 214.188C202.396 213.76 201.51 213.172 200.781 212.422C200.062 211.672 199.51 210.802 199.125 209.812C198.74 208.812 198.547 207.75 198.547 206.625V206C198.547 204.719 198.729 203.547 199.094 202.484C199.458 201.422 199.979 200.5 200.656 199.719C201.344 198.938 202.177 198.339 203.156 197.922C204.135 197.495 205.24 197.281 206.469 197.281C207.667 197.281 208.729 197.479 209.656 197.875C210.583 198.271 211.359 198.833 211.984 199.562C212.62 200.292 213.099 201.167 213.422 202.188C213.745 203.198 213.906 204.323 213.906 205.562V207.438H200.469V204.438H209.484V204.094C209.484 203.469 209.37 202.911 209.141 202.422C208.922 201.922 208.589 201.526 208.141 201.234C207.693 200.943 207.12 200.797 206.422 200.797C205.828 200.797 205.318 200.927 204.891 201.188C204.464 201.448 204.115 201.812 203.844 202.281C203.583 202.75 203.385 203.302 203.25 203.938C203.125 204.562 203.062 205.25 203.062 206V206.625C203.062 207.302 203.156 207.927 203.344 208.5C203.542 209.073 203.818 209.568 204.172 209.984C204.536 210.401 204.974 210.724 205.484 210.953C206.005 211.182 206.594 211.297 207.25 211.297C208.062 211.297 208.818 211.141 209.516 210.828C210.224 210.505 210.833 210.021 211.344 209.375L213.531 211.75C213.177 212.26 212.693 212.75 212.078 213.219C211.474 213.688 210.745 214.073 209.891 214.375C209.036 214.667 208.062 214.812 206.969 214.812ZM225.609 209.828C225.609 209.505 225.516 209.214 225.328 208.953C225.141 208.693 224.792 208.453 224.281 208.234C223.781 208.005 223.057 207.797 222.109 207.609C221.255 207.422 220.458 207.188 219.719 206.906C218.99 206.615 218.354 206.266 217.812 205.859C217.281 205.453 216.865 204.974 216.562 204.422C216.26 203.859 216.109 203.219 216.109 202.5C216.109 201.792 216.26 201.125 216.562 200.5C216.875 199.875 217.318 199.323 217.891 198.844C218.474 198.354 219.182 197.974 220.016 197.703C220.859 197.422 221.807 197.281 222.859 197.281C224.328 197.281 225.589 197.516 226.641 197.984C227.703 198.453 228.516 199.099 229.078 199.922C229.651 200.734 229.938 201.661 229.938 202.703H225.438C225.438 202.266 225.344 201.875 225.156 201.531C224.979 201.177 224.698 200.901 224.312 200.703C223.938 200.495 223.448 200.391 222.844 200.391C222.344 200.391 221.911 200.479 221.547 200.656C221.182 200.823 220.901 201.052 220.703 201.344C220.516 201.625 220.422 201.938 220.422 202.281C220.422 202.542 220.474 202.776 220.578 202.984C220.693 203.182 220.875 203.365 221.125 203.531C221.375 203.698 221.698 203.854 222.094 204C222.5 204.135 223 204.26 223.594 204.375C224.812 204.625 225.901 204.953 226.859 205.359C227.818 205.755 228.578 206.297 229.141 206.984C229.703 207.661 229.984 208.552 229.984 209.656C229.984 210.406 229.818 211.094 229.484 211.719C229.151 212.344 228.672 212.891 228.047 213.359C227.422 213.818 226.672 214.177 225.797 214.438C224.932 214.688 223.958 214.812 222.875 214.812C221.302 214.812 219.969 214.531 218.875 213.969C217.792 213.406 216.969 212.693 216.406 211.828C215.854 210.953 215.578 210.057 215.578 209.141H219.844C219.865 209.755 220.021 210.25 220.312 210.625C220.615 211 220.995 211.271 221.453 211.438C221.922 211.604 222.427 211.688 222.969 211.688C223.552 211.688 224.036 211.609 224.422 211.453C224.807 211.286 225.099 211.068 225.297 210.797C225.505 210.516 225.609 210.193 225.609 209.828ZM242.047 209.828C242.047 209.505 241.953 209.214 241.766 208.953C241.578 208.693 241.229 208.453 240.719 208.234C240.219 208.005 239.495 207.797 238.547 207.609C237.693 207.422 236.896 207.188 236.156 206.906C235.427 206.615 234.792 206.266 234.25 205.859C233.719 205.453 233.302 204.974 233 204.422C232.698 203.859 232.547 203.219 232.547 202.5C232.547 201.792 232.698 201.125 233 200.5C233.312 199.875 233.755 199.323 234.328 198.844C234.911 198.354 235.62 197.974 236.453 197.703C237.297 197.422 238.245 197.281 239.297 197.281C240.766 197.281 242.026 197.516 243.078 197.984C244.141 198.453 244.953 199.099 245.516 199.922C246.089 200.734 246.375 201.661 246.375 202.703H241.875C241.875 202.266 241.781 201.875 241.594 201.531C241.417 201.177 241.135 200.901 240.75 200.703C240.375 200.495 239.885 200.391 239.281 200.391C238.781 200.391 238.349 200.479 237.984 200.656C237.62 200.823 237.339 201.052 237.141 201.344C236.953 201.625 236.859 201.938 236.859 202.281C236.859 202.542 236.911 202.776 237.016 202.984C237.13 203.182 237.312 203.365 237.562 203.531C237.812 203.698 238.135 203.854 238.531 204C238.938 204.135 239.438 204.26 240.031 204.375C241.25 204.625 242.339 204.953 243.297 205.359C244.255 205.755 245.016 206.297 245.578 206.984C246.141 207.661 246.422 208.552 246.422 209.656C246.422 210.406 246.255 211.094 245.922 211.719C245.589 212.344 245.109 212.891 244.484 213.359C243.859 213.818 243.109 214.177 242.234 214.438C241.37 214.688 240.396 214.812 239.312 214.812C237.74 214.812 236.406 214.531 235.312 213.969C234.229 213.406 233.406 212.693 232.844 211.828C232.292 210.953 232.016 210.057 232.016 209.141H236.281C236.302 209.755 236.458 210.25 236.75 210.625C237.052 211 237.432 211.271 237.891 211.438C238.359 211.604 238.865 211.688 239.406 211.688C239.99 211.688 240.474 211.609 240.859 211.453C241.245 211.286 241.536 211.068 241.734 210.797C241.943 210.516 242.047 210.193 242.047 209.828Z" fill="white"/>
</svg>
