<svg width="96" height="94" viewBox="0 0 96 94" fill="none" xmlns="http://www.w3.org/2000/svg">
<g opacity="0.9">
<ellipse opacity="0.25" cx="48" cy="47" rx="48" ry="47" fill="#FCD8C8"/>
<path d="M31 66.5013C32.0307 62.6543 33.0783 58.854 35.8437 55.728C40.4711 50.4941 48.199 48.7042 54.7945 51.4824C60.9997 54.0951 65.538 61.1147 64.9485 67.5659C53.6535 67.5659 42.3289 67.5659 31 67.5659C31 67.2096 31 66.8533 31 66.5013Z" fill="var(--clr-primary)"/>
<path d="M49.4205 26C50.1755 26.246 50.9305 26.4962 51.6855 26.7338C56.9321 28.3879 60.0962 33.6728 59.0783 39.0933C58.1664 43.9625 53.2718 47.8349 48.1863 47.7119C42.7912 47.5804 38.0747 43.3432 37.5657 38.1772C37.0398 32.7396 40.4372 27.9086 45.7347 26.5768C46.4261 26.4029 47.109 26.1951 47.7961 26C48.339 26 48.8819 26 49.4205 26Z" fill="var(--clr-primary)"/>
</g>
</svg>
