<svg width="96" height="94" viewBox="0 0 96 94" fill="none" xmlns="http://www.w3.org/2000/svg">
<g opacity="0.9">
<ellipse opacity="0.25" cx="48" cy="47" rx="48" ry="47" fill="#FCD8C8"/>
<path d="M55.8396 49.6743C55.7149 49.5112 55.4175 49.3961 54.8996 49.2139C54.6885 49.1419 54.4679 49.0652 54.2473 48.9741C53.8924 48.8254 53.5231 48.6671 53.149 48.504C52.5543 48.2498 51.9404 47.9861 51.3744 47.751C51.125 47.6839 50.8804 47.6168 50.631 47.5496L50.4632 47.5064L50.3193 47.4057C49.9356 47.1419 49.6574 46.6815 49.4032 46.1683L48.5159 46.034L48.5591 45.1276C48.5927 44.4513 48.9044 44.0868 49.0723 43.8902C49.0915 43.871 49.1107 43.8422 49.125 43.8278C49.1346 43.7655 49.1394 43.6456 49.1442 43.564C49.1586 43.2619 49.1778 42.8446 49.3936 42.4417C49.5903 42.0724 49.8828 41.895 50.0747 41.7991C50.0987 41.7319 50.1226 41.6312 50.1466 41.5257C50.2569 40.9454 50.185 40.7439 50.1706 40.7104C50.1562 40.6768 50.137 40.6528 50.1178 40.6192C50.0027 40.4226 49.8924 40.2116 49.8493 39.8183C49.7965 39.3099 49.9404 38.0005 49.9596 37.8327C49.9644 37.66 49.902 37.1181 49.8588 36.9454L49.7869 36.7727L49.2401 36.6768L48.7366 36.202C48.4008 36.015 48.0411 35.9238 47.6334 35.9238C46.9188 35.9238 46.2186 36.2068 45.7534 36.3938L45.6862 36.4178C45.2977 36.5425 45.0435 36.7727 44.8949 37.1324C44.6742 37.66 44.6695 38.461 44.8805 39.4634C45.0052 40.0245 44.8181 40.4418 44.6934 40.6768C44.6934 40.696 44.6982 40.7199 44.6982 40.7439C44.7126 40.9406 44.7462 41.4777 44.8277 41.7703C45.0867 41.8374 45.4368 41.9957 45.5855 42.4417C45.6287 42.5664 45.6287 42.5664 45.7246 43.6264C45.7342 43.7415 45.7486 43.8614 45.7582 43.9669C45.9164 44.1396 46.185 44.4417 46.2809 44.9933L46.444 45.9237L45.6095 46.1252C45.3505 46.6575 45.0675 47.1371 44.6695 47.4105L44.5208 47.5112L44.3481 47.5544C44.1035 47.6168 43.8589 47.6839 43.6095 47.7558C43.0532 47.9861 42.4536 48.2403 41.8733 48.4896C41.4848 48.6575 41.1011 48.8206 40.7366 48.9741C40.516 49.07 40.2954 49.1419 40.0844 49.2139C39.5664 49.3961 39.269 49.5112 39.1443 49.6695C39.1395 49.8949 39.1347 50.1731 39.1251 50.4848C39.1203 50.7486 39.1108 51.0316 39.106 51.3002H55.8588C55.854 51.022 55.8492 50.7294 55.8396 50.4561C55.8492 50.1635 55.8444 49.8949 55.8396 49.6743Z" fill="var(--clr-primary)"/>
<path d="M70.7451 36.7103C69.7379 31.3675 66.4525 27.8183 61.1816 26.4706C55.8771 25.1085 51.3688 26.7392 47.7861 30.8927C47.6997 30.9934 47.6086 31.0845 47.5079 31.1948C47.4024 31.0701 47.3256 30.979 47.2489 30.8879C44.0211 27.0989 39.93 25.4251 35.0092 26.2212C30.05 27.027 26.5776 29.8951 24.8654 34.6049C23.1244 39.3866 24.0405 43.8134 27.3402 47.6934C28.0069 48.48 28.8606 49.1035 29.5944 49.8325C35.4361 55.6598 41.2681 61.4967 47.1002 67.3335C47.2249 67.463 47.2921 67.6213 47.4935 67.8995C47.7189 67.6117 47.8005 67.4582 47.9252 67.3287C53.7141 61.535 59.5078 55.7461 65.3015 49.9572C65.5797 49.679 65.8866 49.42 66.184 49.1611C70.0161 45.8517 71.6803 41.6743 70.7451 36.7103ZM57.8915 52.3361L57.8675 53.3193H37.1243L37.1051 52.3313C37.0955 51.8229 37.1147 51.0891 37.1291 50.4416C37.1387 50.0483 37.1483 49.6742 37.1483 49.444V49.2762L37.201 49.1179C37.6039 47.9524 38.6639 47.5831 39.4408 47.3146C39.6279 47.2474 39.8053 47.1899 39.9684 47.1179C40.3329 46.9644 40.7118 46.8014 41.0955 46.6383C41.7046 46.3793 42.3329 46.1059 42.918 45.8661L42.9756 45.8421L43.0331 45.8278C43.2154 45.775 43.3976 45.727 43.5751 45.6791C43.7046 45.4824 43.8724 45.1227 43.9396 44.9693C43.9492 44.9501 43.9588 44.9309 43.9684 44.9117C43.9252 44.835 43.882 44.7438 43.8437 44.6431L43.8005 44.5232L43.7861 44.3937C43.7717 44.2307 43.7525 44.0196 43.7333 43.8086C43.7238 43.7175 43.7142 43.6167 43.7046 43.516C42.8413 42.9741 42.7549 41.7127 42.7022 40.8782C42.6974 40.7918 42.6926 40.7103 42.683 40.6432V40.6384C42.6494 40.2403 42.8125 39.9381 42.8988 39.7799C42.6207 38.4034 42.6686 37.2523 43.0427 36.3554C43.4168 35.4634 44.1027 34.8255 45.0331 34.5137C45.6086 34.2787 46.5535 33.9046 47.6374 33.9046C48.4479 33.9046 49.2009 34.1156 49.8724 34.5233L49.9587 34.5761L50.1793 34.7823L50.6637 34.8638L50.8172 34.955C51.3879 35.2859 51.6709 35.9765 51.762 36.2595L51.9203 37.0749L51.9635 37.4969C51.9779 37.7223 51.9779 37.919 51.9635 38.0437C51.9059 38.5041 51.8388 39.3626 51.8532 39.588C51.8819 39.6408 51.9299 39.7175 51.9779 39.8182L51.9827 39.8326C52.3184 40.5328 52.2225 41.3386 52.1218 41.8854C52.0738 42.1539 51.9491 42.6671 51.6853 43.0412L51.6805 43.046C51.5126 43.2762 51.3112 43.4153 51.1577 43.4968C51.1529 43.5496 51.1529 43.612 51.1481 43.6599C51.1385 43.8805 51.1242 44.1587 51.033 44.4465L51.0282 44.4609C50.9995 44.552 50.9659 44.6335 50.9275 44.7055L50.9803 44.8206C50.9995 44.8637 51.0234 44.9117 51.0474 44.9645C51.1194 45.1179 51.2824 45.4776 51.4119 45.6743C51.5942 45.7222 51.7716 45.7702 51.9539 45.823L52.0114 45.8374L52.0642 45.8613C52.6685 46.1059 53.3112 46.3841 53.9299 46.6527C54.2992 46.811 54.6637 46.9692 55.0138 47.1179C55.1721 47.1851 55.3543 47.2474 55.5414 47.3146C56.3184 47.5831 57.3783 47.9524 57.7812 49.1131L57.8387 49.2714V49.4392C57.8387 49.6647 57.8483 50.0244 57.8579 50.408C57.8867 51.0699 57.9059 51.8133 57.8915 52.3361Z" fill="var(--clr-primary)"/>
</g>
</svg>
