<svg width="27" height="22" viewBox="0 0 27 22" fill="none" xmlns="http://www.w3.org/2000/svg">
<path d="M0.5 2.44444V18.0278C0.5 19.0813 0.98776 20.0916 1.85598 20.8366C2.7242 21.5815 3.90176 22 5.1296 22H22.2235C23.4514 22 24.6289 21.5815 25.4972 20.8366C26.3654 20.0916 26.8531 19.0813 26.8531 18.0278V7.63889C26.8531 6.74468 26.5016 5.87663 25.8553 5.17509C25.2091 4.47356 24.3059 3.97957 23.2919 3.773V2.75C23.2919 2.38886 23.209 2.03127 23.0479 1.69762C22.8869 1.36398 22.6508 1.06082 22.3531 0.805456C22.0555 0.550095 21.7022 0.347532 21.3133 0.209331C20.9245 0.0711309 20.5077 0 20.0868 0H3.70511C2.91674 2.04363e-05 2.15604 0.249342 1.56843 0.700299C0.980824 1.15126 0.607539 1.77221 0.519943 2.44444H0.5ZM3.70511 3.66667C3.42176 3.66667 3.15002 3.57009 2.94966 3.39818C2.7493 3.22627 2.63674 2.99312 2.63674 2.75C2.63674 2.50688 2.7493 2.27373 2.94966 2.10182C3.15002 1.92991 3.42176 1.83333 3.70511 1.83333H20.0868C20.3701 1.83333 20.6419 1.92991 20.8422 2.10182C21.0426 2.27373 21.1552 2.50688 21.1552 2.75V3.66667H3.70511ZM19.3745 12.2222H22.2235C22.5069 12.2222 22.7786 12.3188 22.979 12.4907C23.1793 12.6626 23.2919 12.8958 23.2919 13.1389C23.2919 13.382 23.1793 13.6152 22.979 13.7871C22.7786 13.959 22.5069 14.0556 22.2235 14.0556H19.3745C19.0912 14.0556 18.8195 13.959 18.6191 13.7871C18.4187 13.6152 18.3062 13.382 18.3062 13.1389C18.3062 12.8958 18.4187 12.6626 18.6191 12.4907C18.8195 12.3188 19.0912 12.2222 19.3745 12.2222Z" fill="black"/>
</svg>
