<svg id="Layer_1" data-name="Layer 1" xmlns="http://www.w3.org/2000/svg" viewBox="0 0 512 512"><defs><style>.cls-1{fill:#141f38;}</style></defs><title>watch-glyph</title><path class="cls-1" d="M236.8,448a191.09,191.09,0,0,0,102.4-29.57V467.2A44.8,44.8,0,0,1,294.4,512H179.2a44.8,44.8,0,0,1-44.8-44.8V418.43A191.09,191.09,0,0,0,236.8,448ZM339.2,93.57V44.8A44.8,44.8,0,0,0,294.4,0H179.2a44.8,44.8,0,0,0-44.8,44.8V93.57a192.09,192.09,0,0,1,204.8,0Zm96,111.23H421.89a193,193,0,0,1,0,102.4H435.2a32,32,0,0,0,32-32V236.8A32,32,0,0,0,435.2,204.8ZM236.8,243.2A12.8,12.8,0,1,0,249.6,256,12.81,12.81,0,0,0,236.8,243.2ZM403.2,256c0,91.75-74.65,166.4-166.4,166.4S70.4,347.75,70.4,256,145,89.6,236.8,89.6,403.2,164.25,403.2,256Zm-80.55,67.75-51.19-51.19a38.42,38.42,0,0,0-21.86-52.76V179.2a12.8,12.8,0,1,0-25.6,0v40.59a38.4,38.4,0,1,0,29.36,70.86l51.19,51.19a12.8,12.8,0,0,0,18.1-18.1Z"/></svg>